<?xml version="1.0" encoding="UTF-8" standalone="no"?>
<!-- Created with Inkscape (http://www.inkscape.org/) -->

<svg
   version="1.1"
   id="svg2"
   width="678.66669"
   height="688"
   viewBox="0 0 678.66669 688"
   sodipodi:docname="logo.svg"
   inkscape:version="1.1.2 (0a00cf5339, 2022-02-04)"
   xmlns:inkscape="http://www.inkscape.org/namespaces/inkscape"
   xmlns:sodipodi="http://sodipodi.sourceforge.net/DTD/sodipodi-0.dtd"
   xmlns="http://www.w3.org/2000/svg"
   xmlns:svg="http://www.w3.org/2000/svg">
  <defs
     id="defs6" />
  <sodipodi:namedview
     id="namedview4"
     pagecolor="#ffffff"
     bordercolor="#666666"
     borderopacity="1.0"
     inkscape:pageshadow="2"
     inkscape:pageopacity="0.0"
     inkscape:pagecheckerboard="0"
     showgrid="false"
     inkscape:zoom="0.63927386"
     inkscape:cx="319.11206"
     inkscape:cy="240.89832"
     inkscape:window-width="1440"
     inkscape:window-height="873"
     inkscape:window-x="0"
     inkscape:window-y="27"
     inkscape:window-maximized="1"
     inkscape:current-layer="g8" />
  <g
     inkscape:groupmode="layer"
     inkscape:label="Image"
     id="g8"
     style="display:inline">
    <path
       style="fill:#000000;stroke-width:1.33333"
       d="M 46.488744,682.45136 C 27.843938,678.05869 10.154968,658.57666 5.6773834,637.50313 4.5907184,632.3888 4.1804904,550.82762 4.1919444,342.1698 4.2093344,25.364147 3.6368924,46.919727 12.42119,32.294797 19.299088,20.843827 31.225762,11.527087 45.701728,6.2971073 l 8.474393,-3.06168 256.000009,-0.24167 c 140.80001,-0.13292 270.40001,0.18562 288.00001,0.70787 l 32.00001,0.94956 9.06881,4.2542697 c 15.87371,7.4465 30.59413,25.41239 33.5908,40.99663 1.50719,7.83817 0.92629,580.304243 -0.597,588.336523 -3.96456,20.905 -20.18281,38.39761 -40.61207,43.80316 -8.44769,2.23525 -98.68439,2.63793 -108.33822,0.48347 -11.43522,-2.55203 -24.74228,-9.96386 -35.09094,-19.54514 -5.36926,-4.9711 -25.91591,-26.59414 -45.65923,-48.0512 -31.02582,-33.71889 -36.23288,-38.83304 -38.37266,-37.68786 -3.70489,1.9828 -23.46302,6.526 -33.32284,7.66228 -12.97394,1.49516 -54.29256,1.00142 -62.66667,-0.74883 -4.03333,-0.843 -9.36588,-1.86775 -11.8501,-2.27723 -13.47923,-2.2218 -50.44799,-16.25368 -61.55473,-23.36374 -21.3199,-13.64808 -13.68689,-44.04224 11.02867,-43.91548 6.0501,0.0311 11.8032,2.46658 23.68118,10.02534 12.18017,7.75108 31.59908,13.873 53.1534,16.75692 12.19633,1.63184 46.58937,0.674 48.61737,-1.354 1.02136,-1.02136 -34.28053,-40.78478 -44.59336,-50.22917 -3.37477,-3.09057 -7.94196,-5.04505 -18.48243,-7.90936 -34.5804,-9.39703 -57.8242,-23.95193 -77.76555,-48.6956 -11.62202,-14.42087 -23.71184,-38.46903 -28.46646,-56.62341 -4.55952,-17.40936 -5.14234,-47.12548 -1.25522,-64 6.46712,-28.07472 19.78524,-52.80835 39.38678,-73.14688 18.89257,-19.6029 40.64085,-31.07043 72.76712,-38.36899 12.17856,-2.76677 42.96275,-2.34719 55.33334,0.75417 54.51718,13.66771 91.64747,49.82192 106.90531,104.09503 1.97298,7.01801 2.80658,15.28701 3.36034,33.33333 0.70343,22.92391 0.58056,24.57204 -2.74042,36.75802 -5.80279,21.2926 -14.77951,40.14621 -24.0056,50.41845 -4.08178,4.5446 -15.28183,9.46567 -21.51963,9.45524 -6.6406,-0.0107 -15.07359,-4.63287 -18.18382,-9.96579 -5.55246,-9.5205 -4.24105,-18.7405 4.27612,-30.06357 11.66155,-15.50333 16.80579,-29.4984 18.09956,-49.24049 0.98558,-15.03924 -2.41433,-32.85039 -8.88076,-46.52362 -16.96193,-35.866 -54.14854,-58.06969 -93.31111,-55.71498 -49.32216,2.96557 -87.76708,44.1506 -89.18674,95.54341 -0.91428,33.09741 18.95134,70.30483 46.00037,86.15661 7.62523,4.46868 22.39328,10.49948 28.51971,11.64655 2.56666,0.48056 6.16666,1.20235 8,1.60397 1.83333,0.40163 6.82893,1.2602 11.10134,1.90794 4.27241,0.64774 9.1485,2.08224 10.83577,3.18778 1.68726,1.10554 8.69166,8.15932 15.56533,15.67508 6.87365,7.51576 17.29756,18.80036 23.16423,25.07688 5.86666,6.27652 19.96666,21.59256 31.33333,34.03564 11.36667,12.4431 26.96667,29.50179 34.66667,37.90822 7.7,8.40642 26.6,29.0927 42,45.9695 20.57795,22.5513 29.64424,31.52972 34.20296,33.87148 6.03596,3.1006 7.27442,3.2033 46,3.81464 39.5386,0.62419 39.8358,0.6083 45.76654,-2.44634 3.5093,-1.80748 7.08108,-4.99787 8.66666,-7.74128 2.68075,-4.63824 2.69941,-6.37263 3.06221,-284.66667 0.39756,-304.950763 0.81993,-286.623783 -6.76989,-293.754033 -7.9353,-7.45483 9.0219,-7.05199 -287.91757,-6.83991 l -272.989092,0.19498 -5.666823,2.86615 c -3.116754,1.57638 -7.025766,4.91096 -8.686697,7.41018 l -3.019873,4.54403 0.342445,284.122633 0.342444,284.12264 3.156719,4.42592 c 1.736196,2.43425 4.715831,5.01869 6.621412,5.74318 2.185514,0.83094 61.619185,1.48458 160.977855,1.77039 173.6162,0.49944 161.5907,-0.1252 169.0856,8.78205 9.12655,10.84628 5.08911,27.11904 -8.13208,32.776 -3.57038,1.52767 -31.43185,1.81331 -166,1.70186 -88.94023,-0.0737 -163.968826,-0.66623 -166.730216,-1.3168 z M 488.84281,512.70145 c -4.87527,-2.14868 -11.22807,-8.36743 -12.82342,-12.55283 -1.58772,-4.16541 -1.48594,-12.5926 0.20583,-17.04229 0.76033,-1.99981 4.87744,-7.37221 9.14915,-11.93868 4.2717,-4.56647 11.48028,-13.85447 16.01905,-20.64001 31.75572,-47.47531 41.36843,-106.1037 26.11755,-159.29222 -4.17783,-14.57048 -10.1937,-27.62342 -19.20694,-41.67426 -7.36401,-11.47983 -8.92022,-16.35088 -7.55269,-23.64042 1.08247,-5.77002 7.83827,-13.77037 13.69448,-16.21726 12.13969,-5.07228 23.4514,-0.26027 32.94008,14.01273 12.90912,19.41808 26.68112,59.53597 30.73091,89.51921 0.96764,7.16408 0.94287,50.69148 -0.0327,57.33334 -7.56908,51.5354 -30.20768,102.43145 -58.45709,131.42312 -11.83819,12.14922 -20.60092,15.1977 -30.78428,10.70957 z M 140.00419,470.63642 c -8.93617,-4.8617 -14.73497,-14.03909 -25.05598,-39.65445 -16.695954,-41.43712 -21.192869,-91.79675 -12.12162,-135.74655 6.36558,-30.84101 24.68503,-73.1933 42.35506,-97.91965 21.57431,-30.18976 51.67492,-55.83091 84.99448,-72.40238 20.16508,-10.0291 29.45123,-13.54278 51.60946,-19.52791 46.02482,-12.431723 89.75059,-9.901873 134.47317,7.78023 21.21838,8.38917 29.20159,13.20173 34.25071,20.64751 13.46463,19.85588 -6.91324,44.3993 -29.11023,35.06083 -2.50604,-1.05432 -7.35994,-4.06487 -10.78646,-6.69012 -8.25224,-6.32252 -11.66152,-7.9814 -25.09776,-12.21204 -21.35411,-6.72371 -50.39766,-9.20024 -70.67222,-6.0262 -46.10213,7.21743 -79.76998,23.81737 -110.77422,54.61728 -45.88884,45.58643 -67.65001,107.90367 -59.11586,169.28951 3.66502,26.36237 10.81558,47.1811 22.11844,64.39745 8.05174,12.26429 9.62057,20.01948 5.71486,28.25015 -5.1379,10.82733 -21.95426,16.02705 -32.78183,10.13634 z"
       id="path827" />
  </g>
</svg>
